<mxfile host="app.diagrams.net" modified="2023-07-31T13:00:47.101Z" agent="Mozilla/5.0 (Windows NT 10.0; Win64; x64) AppleWebKit/537.36 (KHTML, like Gecko) Chrome/115.0.0.0 Safari/537.36" etag="bjmtGBHCA-yM03WLWkz4" version="21.6.6" type="device">
  <diagram name="Page-1" id="3lAkGJ_R66gowqq5Hg3F">
    <mxGraphModel dx="1376" dy="768" grid="1" gridSize="10" guides="1" tooltips="1" connect="1" arrows="1" fold="1" page="1" pageScale="1" pageWidth="850" pageHeight="1100" background="#ffffff" math="0" shadow="0">
      <root>
        <mxCell id="0" />
        <mxCell id="1" parent="0" />
        <mxCell id="vBSe5yG53cc80rkiJYat-1" value="Function: l_cc_auto_setCurrentState&#xa;&#xa;&#xa;&#xa;Description:&#xa;    Based on the desired temperature given by tempGauge and the current cabin temperature reading&#xa;    it will adjust the current state so we know how big is the difference between those two, and&#xa;    if we need heating or cooling.&#xa;&#xa;&#xa;&#xa;Parameters In:&#xa;    tempGauge: uint16&#xa;    tempCabin: uint16&#xa;&#xa;&#xa;&#xa;Parameters Out:&#xa;    None&#xa;&#xa;&#xa;&#xa;Return Value:&#xa;    None" style="text;whiteSpace=wrap;" vertex="1" parent="1">
          <mxGeometry x="300" y="20" width="540" height="370" as="geometry" />
        </mxCell>
        <mxCell id="vBSe5yG53cc80rkiJYat-3" style="edgeStyle=orthogonalEdgeStyle;rounded=0;orthogonalLoop=1;jettySize=auto;html=1;" edge="1" parent="1" source="vBSe5yG53cc80rkiJYat-2" target="vBSe5yG53cc80rkiJYat-4">
          <mxGeometry relative="1" as="geometry">
            <mxPoint x="170" y="390" as="targetPoint" />
          </mxGeometry>
        </mxCell>
        <mxCell id="vBSe5yG53cc80rkiJYat-2" value="" style="ellipse;whiteSpace=wrap;html=1;" vertex="1" parent="1">
          <mxGeometry x="110" y="170" width="120" height="80" as="geometry" />
        </mxCell>
        <mxCell id="vBSe5yG53cc80rkiJYat-5" style="edgeStyle=orthogonalEdgeStyle;rounded=0;orthogonalLoop=1;jettySize=auto;html=1;" edge="1" parent="1" source="vBSe5yG53cc80rkiJYat-4" target="vBSe5yG53cc80rkiJYat-6">
          <mxGeometry relative="1" as="geometry">
            <mxPoint x="170" y="500" as="targetPoint" />
          </mxGeometry>
        </mxCell>
        <mxCell id="vBSe5yG53cc80rkiJYat-4" value="call&amp;nbsp;l_cc_auto_setCurrentState" style="rounded=1;whiteSpace=wrap;html=1;" vertex="1" parent="1">
          <mxGeometry x="85" y="300" width="170" height="60" as="geometry" />
        </mxCell>
        <mxCell id="vBSe5yG53cc80rkiJYat-7" value="no" style="edgeStyle=orthogonalEdgeStyle;rounded=0;orthogonalLoop=1;jettySize=auto;html=1;" edge="1" parent="1" source="vBSe5yG53cc80rkiJYat-6" target="vBSe5yG53cc80rkiJYat-10">
          <mxGeometry relative="1" as="geometry">
            <mxPoint x="170" y="650" as="targetPoint" />
          </mxGeometry>
        </mxCell>
        <mxCell id="vBSe5yG53cc80rkiJYat-8" value="yes" style="edgeStyle=orthogonalEdgeStyle;rounded=0;orthogonalLoop=1;jettySize=auto;html=1;" edge="1" parent="1" source="vBSe5yG53cc80rkiJYat-6" target="vBSe5yG53cc80rkiJYat-9">
          <mxGeometry relative="1" as="geometry">
            <mxPoint x="330" y="535" as="targetPoint" />
          </mxGeometry>
        </mxCell>
        <mxCell id="vBSe5yG53cc80rkiJYat-6" value="if tempGauge greater than tempCAbin" style="rhombus;whiteSpace=wrap;html=1;" vertex="1" parent="1">
          <mxGeometry x="105" y="410" width="130" height="110" as="geometry" />
        </mxCell>
        <mxCell id="vBSe5yG53cc80rkiJYat-12" style="edgeStyle=orthogonalEdgeStyle;rounded=0;orthogonalLoop=1;jettySize=auto;html=1;entryX=1;entryY=0.5;entryDx=0;entryDy=0;" edge="1" parent="1" source="vBSe5yG53cc80rkiJYat-9" target="vBSe5yG53cc80rkiJYat-15">
          <mxGeometry relative="1" as="geometry">
            <mxPoint x="230" y="790" as="targetPoint" />
            <Array as="points">
              <mxPoint x="390" y="705" />
            </Array>
          </mxGeometry>
        </mxCell>
        <mxCell id="vBSe5yG53cc80rkiJYat-9" value="currentState.heating assigned HEATING_ON" style="rounded=1;whiteSpace=wrap;html=1;" vertex="1" parent="1">
          <mxGeometry x="330" y="435" width="120" height="60" as="geometry" />
        </mxCell>
        <mxCell id="vBSe5yG53cc80rkiJYat-11" style="edgeStyle=orthogonalEdgeStyle;rounded=0;orthogonalLoop=1;jettySize=auto;html=1;" edge="1" parent="1" source="vBSe5yG53cc80rkiJYat-10" target="vBSe5yG53cc80rkiJYat-15">
          <mxGeometry relative="1" as="geometry">
            <mxPoint x="170" y="770" as="targetPoint" />
          </mxGeometry>
        </mxCell>
        <mxCell id="vBSe5yG53cc80rkiJYat-10" value="currentState.heating assigned HEATING_OFF" style="rounded=1;whiteSpace=wrap;html=1;" vertex="1" parent="1">
          <mxGeometry x="110" y="570" width="120" height="60" as="geometry" />
        </mxCell>
        <mxCell id="vBSe5yG53cc80rkiJYat-17" style="edgeStyle=orthogonalEdgeStyle;rounded=0;orthogonalLoop=1;jettySize=auto;html=1;" edge="1" parent="1" source="vBSe5yG53cc80rkiJYat-14" target="vBSe5yG53cc80rkiJYat-18">
          <mxGeometry relative="1" as="geometry">
            <mxPoint x="170" y="890" as="targetPoint" />
          </mxGeometry>
        </mxCell>
        <mxCell id="vBSe5yG53cc80rkiJYat-14" value="heatingSystem.heater_core gets assigned the currentState.heating status" style="rounded=1;whiteSpace=wrap;html=1;" vertex="1" parent="1">
          <mxGeometry x="70" y="780" width="200" height="60" as="geometry" />
        </mxCell>
        <mxCell id="vBSe5yG53cc80rkiJYat-16" style="edgeStyle=orthogonalEdgeStyle;rounded=0;orthogonalLoop=1;jettySize=auto;html=1;entryX=0.5;entryY=0;entryDx=0;entryDy=0;" edge="1" parent="1" source="vBSe5yG53cc80rkiJYat-15" target="vBSe5yG53cc80rkiJYat-14">
          <mxGeometry relative="1" as="geometry" />
        </mxCell>
        <mxCell id="vBSe5yG53cc80rkiJYat-15" value="" style="rhombus;whiteSpace=wrap;html=1;" vertex="1" parent="1">
          <mxGeometry x="145" y="680" width="50" height="50" as="geometry" />
        </mxCell>
        <mxCell id="vBSe5yG53cc80rkiJYat-19" style="edgeStyle=orthogonalEdgeStyle;rounded=0;orthogonalLoop=1;jettySize=auto;html=1;" edge="1" parent="1" source="vBSe5yG53cc80rkiJYat-18" target="vBSe5yG53cc80rkiJYat-20">
          <mxGeometry relative="1" as="geometry">
            <mxPoint x="170" y="1000" as="targetPoint" />
          </mxGeometry>
        </mxCell>
        <mxCell id="vBSe5yG53cc80rkiJYat-18" value="currentState.power ges assinged the absolute value of the difference between tempGauge and tempCabin" style="rounded=1;whiteSpace=wrap;html=1;" vertex="1" parent="1">
          <mxGeometry x="70" y="880" width="200" height="60" as="geometry" />
        </mxCell>
        <mxCell id="vBSe5yG53cc80rkiJYat-20" value="" style="ellipse;whiteSpace=wrap;html=1;" vertex="1" parent="1">
          <mxGeometry x="110" y="960" width="120" height="80" as="geometry" />
        </mxCell>
      </root>
    </mxGraphModel>
  </diagram>
</mxfile>
